<mxfile host="app.diagrams.net" modified="2021-07-12T02:51:58.833Z" agent="5.0 (Macintosh; Intel Mac OS X 10_15_7) AppleWebKit/537.36 (KHTML, like Gecko) Chrome/91.0.4472.114 Safari/537.36 Edg/91.0.864.54" etag="RNLu_EzTS48EGyOylAl7" version="14.8.4" type="github">
  <diagram id="2CS6COMkkUwPnVfk5qSF" name="Page-1">
    <mxGraphModel dx="2866" dy="1554" grid="0" gridSize="10" guides="1" tooltips="1" connect="1" arrows="1" fold="1" page="0" pageScale="1" pageWidth="827" pageHeight="1169" math="0" shadow="0">
      <root>
        <mxCell id="0" />
        <mxCell id="1" parent="0" />
        <mxCell id="CJXIp_XP7tB50_NmrIow-1" style="edgeStyle=orthogonalEdgeStyle;rounded=0;orthogonalLoop=1;jettySize=auto;html=1;exitX=1;exitY=0.5;exitDx=0;exitDy=0;entryX=0;entryY=0.5;entryDx=0;entryDy=0;" edge="1" parent="1" target="CJXIp_XP7tB50_NmrIow-10">
          <mxGeometry relative="1" as="geometry">
            <mxPoint x="67" y="400" as="sourcePoint" />
          </mxGeometry>
        </mxCell>
        <mxCell id="CJXIp_XP7tB50_NmrIow-2" style="edgeStyle=orthogonalEdgeStyle;rounded=0;orthogonalLoop=1;jettySize=auto;html=1;exitX=1;exitY=0.5;exitDx=0;exitDy=0;entryX=0.006;entryY=0.609;entryDx=0;entryDy=0;entryPerimeter=0;" edge="1" parent="1" target="CJXIp_XP7tB50_NmrIow-34">
          <mxGeometry relative="1" as="geometry">
            <mxPoint x="67" y="400" as="sourcePoint" />
          </mxGeometry>
        </mxCell>
        <mxCell id="CJXIp_XP7tB50_NmrIow-3" style="edgeStyle=orthogonalEdgeStyle;rounded=0;orthogonalLoop=1;jettySize=auto;html=1;exitX=1;exitY=0.5;exitDx=0;exitDy=0;entryX=0;entryY=0.5;entryDx=0;entryDy=0;" edge="1" parent="1" target="CJXIp_XP7tB50_NmrIow-17">
          <mxGeometry relative="1" as="geometry">
            <mxPoint x="67" y="400" as="sourcePoint" />
          </mxGeometry>
        </mxCell>
        <mxCell id="CJXIp_XP7tB50_NmrIow-4" style="edgeStyle=orthogonalEdgeStyle;rounded=0;orthogonalLoop=1;jettySize=auto;html=1;exitX=1;exitY=0.5;exitDx=0;exitDy=0;entryX=0;entryY=0.5;entryDx=0;entryDy=0;strokeWidth=1;" edge="1" parent="1" target="CJXIp_XP7tB50_NmrIow-28">
          <mxGeometry relative="1" as="geometry">
            <mxPoint x="67" y="400" as="sourcePoint" />
          </mxGeometry>
        </mxCell>
        <mxCell id="CJXIp_XP7tB50_NmrIow-5" value="- (BOOL)singSongWithStrategy:(KSRecordingStrategyBase *)strategy;" style="rounded=0;whiteSpace=wrap;html=1;" vertex="1" parent="1">
          <mxGeometry x="-139" y="374" width="206" height="60" as="geometry" />
        </mxCell>
        <mxCell id="CJXIp_XP7tB50_NmrIow-6" style="edgeStyle=orthogonalEdgeStyle;rounded=0;orthogonalLoop=1;jettySize=auto;html=1;exitX=1;exitY=0.5;exitDx=0;exitDy=0;entryX=0;entryY=0.5;entryDx=0;entryDy=0;" edge="1" parent="1" source="CJXIp_XP7tB50_NmrIow-10" target="CJXIp_XP7tB50_NmrIow-39">
          <mxGeometry relative="1" as="geometry" />
        </mxCell>
        <mxCell id="CJXIp_XP7tB50_NmrIow-7" style="edgeStyle=orthogonalEdgeStyle;rounded=0;orthogonalLoop=1;jettySize=auto;html=1;entryX=0.5;entryY=0;entryDx=0;entryDy=0;strokeWidth=2;dashed=1;" edge="1" parent="1" source="CJXIp_XP7tB50_NmrIow-10" target="CJXIp_XP7tB50_NmrIow-17">
          <mxGeometry relative="1" as="geometry" />
        </mxCell>
        <mxCell id="CJXIp_XP7tB50_NmrIow-8" value="开始录唱" style="edgeLabel;html=1;align=center;verticalAlign=middle;resizable=0;points=[];" vertex="1" connectable="0" parent="CJXIp_XP7tB50_NmrIow-7">
          <mxGeometry x="-0.2784" y="2" relative="1" as="geometry">
            <mxPoint as="offset" />
          </mxGeometry>
        </mxCell>
        <mxCell id="CJXIp_XP7tB50_NmrIow-9" value="Strategy" style="edgeLabel;html=1;align=center;verticalAlign=middle;resizable=0;points=[];" vertex="1" connectable="0" parent="CJXIp_XP7tB50_NmrIow-7">
          <mxGeometry x="0.0221" y="-1" relative="1" as="geometry">
            <mxPoint as="offset" />
          </mxGeometry>
        </mxCell>
        <mxCell id="CJXIp_XP7tB50_NmrIow-10" value="&lt;div&gt;录唱前置页&lt;/div&gt;&lt;div&gt;KSSingPreparationVC&lt;/div&gt;" style="rounded=0;whiteSpace=wrap;html=1;" vertex="1" parent="1">
          <mxGeometry x="134" y="-21" width="151" height="63" as="geometry" />
        </mxCell>
        <mxCell id="CJXIp_XP7tB50_NmrIow-11" style="edgeStyle=orthogonalEdgeStyle;rounded=0;orthogonalLoop=1;jettySize=auto;html=1;exitX=1;exitY=0.5;exitDx=0;exitDy=0;entryX=0;entryY=0.5;entryDx=0;entryDy=0;" edge="1" parent="1" source="CJXIp_XP7tB50_NmrIow-17" target="CJXIp_XP7tB50_NmrIow-53">
          <mxGeometry relative="1" as="geometry" />
        </mxCell>
        <mxCell id="CJXIp_XP7tB50_NmrIow-12" style="edgeStyle=orthogonalEdgeStyle;rounded=0;orthogonalLoop=1;jettySize=auto;html=1;exitX=0.25;exitY=1;exitDx=0;exitDy=0;entryX=0.25;entryY=0;entryDx=0;entryDy=0;dashed=1;strokeWidth=2;" edge="1" parent="1" source="CJXIp_XP7tB50_NmrIow-17" target="CJXIp_XP7tB50_NmrIow-28">
          <mxGeometry relative="1" as="geometry" />
        </mxCell>
        <mxCell id="CJXIp_XP7tB50_NmrIow-13" value="录唱完成" style="edgeLabel;html=1;align=center;verticalAlign=middle;resizable=0;points=[];rotation=90;" vertex="1" connectable="0" parent="CJXIp_XP7tB50_NmrIow-12">
          <mxGeometry x="-0.0918" y="3" relative="1" as="geometry">
            <mxPoint x="-2" y="-17" as="offset" />
          </mxGeometry>
        </mxCell>
        <mxCell id="CJXIp_XP7tB50_NmrIow-14" value="&lt;span style=&quot;color: rgba(0 , 0 , 0 , 0) ; font-family: monospace ; font-size: 0px&quot;&gt;%3CmxGraphModel%3E%3Croot%3E%3CmxCell%20id%3D%220%22%2F%3E%3CmxCell%20id%3D%221%22%20parent%3D%220%22%2F%3E%3CmxCell%20id%3D%222%22%20value%3D%22Strategy%22%20style%3D%22edgeLabel%3Bhtml%3D1%3Balign%3Dcenter%3BverticalAlign%3Dmiddle%3Bresizable%3D0%3Bpoints%3D%5B%5D%3B%22%20vertex%3D%221%22%20connectable%3D%220%22%20parent%3D%221%22%3E%3CmxGeometry%20x%3D%22209.03935697704537%22%20y%3D%22155.839642614691%22%20as%3D%22geometry%22%2F%3E%3C%2FmxCell%3E%3C%2Froot%3E%3C%2FmxGraphModel%3ES&lt;/span&gt;" style="edgeLabel;html=1;align=center;verticalAlign=middle;resizable=0;points=[];" vertex="1" connectable="0" parent="CJXIp_XP7tB50_NmrIow-12">
          <mxGeometry x="0.2464" y="1" relative="1" as="geometry">
            <mxPoint as="offset" />
          </mxGeometry>
        </mxCell>
        <mxCell id="CJXIp_XP7tB50_NmrIow-15" value="&lt;span style=&quot;color: rgba(0 , 0 , 0 , 0) ; font-family: monospace ; font-size: 0px&quot;&gt;%3CmxGraphModel%3E%3Croot%3E%3CmxCell%20id%3D%220%22%2F%3E%3CmxCell%20id%3D%221%22%20parent%3D%220%22%2F%3E%3CmxCell%20id%3D%222%22%20value%3D%22Strategy%22%20style%3D%22edgeLabel%3Bhtml%3D1%3Balign%3Dcenter%3BverticalAlign%3Dmiddle%3Bresizable%3D0%3Bpoints%3D%5B%5D%3B%22%20vertex%3D%221%22%20connectable%3D%220%22%20parent%3D%221%22%3E%3CmxGeometry%20x%3D%22209.03935697704537%22%20y%3D%22155.839642614691%22%20as%3D%22geometry%22%2F%3E%3C%2FmxCell%3E%3C%2Froot%3E%3C%2FmxGraphModel%3E&lt;/span&gt;" style="edgeLabel;html=1;align=center;verticalAlign=middle;resizable=0;points=[];" vertex="1" connectable="0" parent="CJXIp_XP7tB50_NmrIow-12">
          <mxGeometry x="0.2418" relative="1" as="geometry">
            <mxPoint as="offset" />
          </mxGeometry>
        </mxCell>
        <mxCell id="CJXIp_XP7tB50_NmrIow-16" value="Strategy" style="edgeLabel;html=1;align=center;verticalAlign=middle;resizable=0;points=[];" vertex="1" connectable="0" parent="CJXIp_XP7tB50_NmrIow-12">
          <mxGeometry x="0.2328" y="-1" relative="1" as="geometry">
            <mxPoint as="offset" />
          </mxGeometry>
        </mxCell>
        <mxCell id="CJXIp_XP7tB50_NmrIow-17" value="录唱页面&#xa;KSRecordingVC" style="rounded=0;whiteSpace=wrap;html=1;" vertex="1" parent="1">
          <mxGeometry x="134" y="266" width="152" height="60" as="geometry" />
        </mxCell>
        <mxCell id="CJXIp_XP7tB50_NmrIow-18" style="edgeStyle=orthogonalEdgeStyle;rounded=0;orthogonalLoop=1;jettySize=auto;html=1;exitX=0.75;exitY=0;exitDx=0;exitDy=0;entryX=0.842;entryY=1.017;entryDx=0;entryDy=0;entryPerimeter=0;dashed=1;strokeWidth=2;" edge="1" parent="1" source="CJXIp_XP7tB50_NmrIow-28" target="CJXIp_XP7tB50_NmrIow-17">
          <mxGeometry relative="1" as="geometry" />
        </mxCell>
        <mxCell id="CJXIp_XP7tB50_NmrIow-19" value="&lt;span style=&quot;font-size: 12px ; background-color: rgb(248 , 249 , 250)&quot;&gt;重录，添加视频&lt;/span&gt;" style="edgeLabel;html=1;align=center;verticalAlign=middle;resizable=0;points=[];rotation=90;" vertex="1" connectable="0" parent="CJXIp_XP7tB50_NmrIow-18">
          <mxGeometry x="0.249" y="-1" relative="1" as="geometry">
            <mxPoint x="-1" y="14" as="offset" />
          </mxGeometry>
        </mxCell>
        <mxCell id="CJXIp_XP7tB50_NmrIow-20" value="Strategy" style="edgeLabel;html=1;align=center;verticalAlign=middle;resizable=0;points=[];" vertex="1" connectable="0" parent="CJXIp_XP7tB50_NmrIow-18">
          <mxGeometry x="0.5839" y="-3" relative="1" as="geometry">
            <mxPoint as="offset" />
          </mxGeometry>
        </mxCell>
        <mxCell id="CJXIp_XP7tB50_NmrIow-21" style="edgeStyle=orthogonalEdgeStyle;rounded=0;orthogonalLoop=1;jettySize=auto;html=1;exitX=0.25;exitY=1;exitDx=0;exitDy=0;entryX=0.25;entryY=0;entryDx=0;entryDy=0;dashed=1;strokeWidth=2;" edge="1" parent="1" source="CJXIp_XP7tB50_NmrIow-28" target="CJXIp_XP7tB50_NmrIow-34">
          <mxGeometry relative="1" as="geometry" />
        </mxCell>
        <mxCell id="CJXIp_XP7tB50_NmrIow-22" value="publishContent" style="edgeLabel;html=1;align=center;verticalAlign=middle;resizable=0;points=[];" vertex="1" connectable="0" parent="CJXIp_XP7tB50_NmrIow-21">
          <mxGeometry x="0.1118" y="2" relative="1" as="geometry">
            <mxPoint x="-1" y="21" as="offset" />
          </mxGeometry>
        </mxCell>
        <mxCell id="CJXIp_XP7tB50_NmrIow-23" style="edgeStyle=orthogonalEdgeStyle;rounded=0;orthogonalLoop=1;jettySize=auto;html=1;exitX=1;exitY=0.5;exitDx=0;exitDy=0;strokeWidth=1;" edge="1" parent="1" source="CJXIp_XP7tB50_NmrIow-28" target="CJXIp_XP7tB50_NmrIow-95">
          <mxGeometry relative="1" as="geometry" />
        </mxCell>
        <mxCell id="CJXIp_XP7tB50_NmrIow-24" style="edgeStyle=orthogonalEdgeStyle;rounded=0;orthogonalLoop=1;jettySize=auto;html=1;exitX=1;exitY=0.5;exitDx=0;exitDy=0;entryX=0;entryY=0.75;entryDx=0;entryDy=0;strokeWidth=1;" edge="1" parent="1" source="CJXIp_XP7tB50_NmrIow-28" target="CJXIp_XP7tB50_NmrIow-96">
          <mxGeometry relative="1" as="geometry" />
        </mxCell>
        <mxCell id="CJXIp_XP7tB50_NmrIow-25" style="edgeStyle=orthogonalEdgeStyle;rounded=0;orthogonalLoop=1;jettySize=auto;html=1;exitX=1;exitY=0.5;exitDx=0;exitDy=0;entryX=0;entryY=0.5;entryDx=0;entryDy=0;strokeWidth=1;" edge="1" parent="1" source="CJXIp_XP7tB50_NmrIow-28" target="CJXIp_XP7tB50_NmrIow-101">
          <mxGeometry relative="1" as="geometry" />
        </mxCell>
        <mxCell id="CJXIp_XP7tB50_NmrIow-26" style="edgeStyle=orthogonalEdgeStyle;rounded=0;orthogonalLoop=1;jettySize=auto;html=1;exitX=1;exitY=0.5;exitDx=0;exitDy=0;entryX=0;entryY=0.5;entryDx=0;entryDy=0;strokeWidth=1;" edge="1" parent="1" source="CJXIp_XP7tB50_NmrIow-28" target="CJXIp_XP7tB50_NmrIow-107">
          <mxGeometry relative="1" as="geometry" />
        </mxCell>
        <mxCell id="CJXIp_XP7tB50_NmrIow-27" style="edgeStyle=orthogonalEdgeStyle;rounded=0;orthogonalLoop=1;jettySize=auto;html=1;exitX=1;exitY=0.5;exitDx=0;exitDy=0;entryX=0;entryY=0.5;entryDx=0;entryDy=0;strokeWidth=1;" edge="1" parent="1" source="CJXIp_XP7tB50_NmrIow-28" target="CJXIp_XP7tB50_NmrIow-109">
          <mxGeometry relative="1" as="geometry" />
        </mxCell>
        <mxCell id="CJXIp_XP7tB50_NmrIow-28" value="录唱预览页&#xa;WSRecordingCompletionVC" style="rounded=0;whiteSpace=wrap;html=1;" vertex="1" parent="1">
          <mxGeometry x="134" y="674" width="172" height="54" as="geometry" />
        </mxCell>
        <mxCell id="CJXIp_XP7tB50_NmrIow-29" style="edgeStyle=orthogonalEdgeStyle;rounded=0;orthogonalLoop=1;jettySize=auto;html=1;exitX=1;exitY=0.5;exitDx=0;exitDy=0;entryX=1;entryY=0.5;entryDx=0;entryDy=0;strokeWidth=1;" edge="1" parent="1" source="CJXIp_XP7tB50_NmrIow-34" target="CJXIp_XP7tB50_NmrIow-102">
          <mxGeometry relative="1" as="geometry" />
        </mxCell>
        <mxCell id="CJXIp_XP7tB50_NmrIow-30" value="点击发布后依赖Ksongkit编码" style="edgeLabel;html=1;align=center;verticalAlign=middle;resizable=0;points=[];" vertex="1" connectable="0" parent="CJXIp_XP7tB50_NmrIow-29">
          <mxGeometry x="-0.6247" y="3" relative="1" as="geometry">
            <mxPoint x="219" as="offset" />
          </mxGeometry>
        </mxCell>
        <mxCell id="CJXIp_XP7tB50_NmrIow-31" style="edgeStyle=orthogonalEdgeStyle;rounded=0;orthogonalLoop=1;jettySize=auto;html=1;exitX=1;exitY=0.5;exitDx=0;exitDy=0;entryX=1;entryY=0.5;entryDx=0;entryDy=0;strokeWidth=1;" edge="1" parent="1" source="CJXIp_XP7tB50_NmrIow-34" target="CJXIp_XP7tB50_NmrIow-107">
          <mxGeometry relative="1" as="geometry" />
        </mxCell>
        <mxCell id="CJXIp_XP7tB50_NmrIow-32" value="保存草稿" style="edgeLabel;html=1;align=center;verticalAlign=middle;resizable=0;points=[];" vertex="1" connectable="0" parent="CJXIp_XP7tB50_NmrIow-31">
          <mxGeometry x="0.7413" relative="1" as="geometry">
            <mxPoint x="1" as="offset" />
          </mxGeometry>
        </mxCell>
        <mxCell id="CJXIp_XP7tB50_NmrIow-33" style="edgeStyle=orthogonalEdgeStyle;rounded=0;orthogonalLoop=1;jettySize=auto;html=1;exitX=1;exitY=0.5;exitDx=0;exitDy=0;entryX=0;entryY=0.5;entryDx=0;entryDy=0;strokeWidth=1;" edge="1" parent="1" source="CJXIp_XP7tB50_NmrIow-34" target="CJXIp_XP7tB50_NmrIow-108">
          <mxGeometry relative="1" as="geometry" />
        </mxCell>
        <mxCell id="CJXIp_XP7tB50_NmrIow-34" value="发布页&#xa;KSPublishVC" style="rounded=0;whiteSpace=wrap;html=1;" vertex="1" parent="1">
          <mxGeometry x="134" y="914" width="172" height="46" as="geometry" />
        </mxCell>
        <mxCell id="CJXIp_XP7tB50_NmrIow-35" style="edgeStyle=orthogonalEdgeStyle;rounded=0;orthogonalLoop=1;jettySize=auto;html=1;exitX=1;exitY=0.5;exitDx=0;exitDy=0;entryX=0;entryY=0.5;entryDx=0;entryDy=0;" edge="1" parent="1" source="CJXIp_XP7tB50_NmrIow-39" target="CJXIp_XP7tB50_NmrIow-41">
          <mxGeometry relative="1" as="geometry" />
        </mxCell>
        <mxCell id="CJXIp_XP7tB50_NmrIow-36" style="edgeStyle=orthogonalEdgeStyle;rounded=0;orthogonalLoop=1;jettySize=auto;html=1;exitX=1;exitY=0.5;exitDx=0;exitDy=0;entryX=0;entryY=0.5;entryDx=0;entryDy=0;" edge="1" parent="1" source="CJXIp_XP7tB50_NmrIow-39" target="CJXIp_XP7tB50_NmrIow-43">
          <mxGeometry relative="1" as="geometry" />
        </mxCell>
        <mxCell id="CJXIp_XP7tB50_NmrIow-37" style="edgeStyle=orthogonalEdgeStyle;rounded=0;orthogonalLoop=1;jettySize=auto;html=1;exitX=1;exitY=0.5;exitDx=0;exitDy=0;entryX=0;entryY=0.5;entryDx=0;entryDy=0;" edge="1" parent="1" source="CJXIp_XP7tB50_NmrIow-39" target="CJXIp_XP7tB50_NmrIow-45">
          <mxGeometry relative="1" as="geometry" />
        </mxCell>
        <mxCell id="CJXIp_XP7tB50_NmrIow-38" style="edgeStyle=orthogonalEdgeStyle;rounded=0;orthogonalLoop=1;jettySize=auto;html=1;exitX=1;exitY=0.5;exitDx=0;exitDy=0;entryX=0;entryY=0.5;entryDx=0;entryDy=0;" edge="1" parent="1" source="CJXIp_XP7tB50_NmrIow-39" target="CJXIp_XP7tB50_NmrIow-47">
          <mxGeometry relative="1" as="geometry" />
        </mxCell>
        <mxCell id="CJXIp_XP7tB50_NmrIow-39" value="1:检测版权，前置工作&lt;br&gt;2: 下载必要文件" style="whiteSpace=wrap;html=1;" vertex="1" parent="1">
          <mxGeometry x="311" y="-20" width="96" height="61" as="geometry" />
        </mxCell>
        <mxCell id="CJXIp_XP7tB50_NmrIow-40" value="" style="edgeStyle=orthogonalEdgeStyle;rounded=0;orthogonalLoop=1;jettySize=auto;html=1;" edge="1" parent="1" source="CJXIp_XP7tB50_NmrIow-41" target="CJXIp_XP7tB50_NmrIow-74">
          <mxGeometry relative="1" as="geometry" />
        </mxCell>
        <mxCell id="CJXIp_XP7tB50_NmrIow-41" value="&lt;span&gt;独唱，发起合唱&lt;br&gt;KSSingPre&lt;br&gt;parationVC.view&lt;/span&gt;" style="whiteSpace=wrap;html=1;" vertex="1" parent="1">
          <mxGeometry x="448" y="-113" width="127" height="52" as="geometry" />
        </mxCell>
        <mxCell id="CJXIp_XP7tB50_NmrIow-42" value="" style="edgeStyle=orthogonalEdgeStyle;rounded=0;orthogonalLoop=1;jettySize=auto;html=1;" edge="1" parent="1" source="CJXIp_XP7tB50_NmrIow-43" target="CJXIp_XP7tB50_NmrIow-75">
          <mxGeometry relative="1" as="geometry" />
        </mxCell>
        <mxCell id="CJXIp_XP7tB50_NmrIow-43" value="发起合唱，选择j角色&lt;br&gt;WSChorusSection&lt;br&gt;ChooseView" style="whiteSpace=wrap;html=1;" vertex="1" parent="1">
          <mxGeometry x="448" y="-52" width="125" height="61" as="geometry" />
        </mxCell>
        <mxCell id="CJXIp_XP7tB50_NmrIow-44" style="edgeStyle=orthogonalEdgeStyle;rounded=0;orthogonalLoop=1;jettySize=auto;html=1;exitX=1;exitY=0.5;exitDx=0;exitDy=0;entryX=0;entryY=0.5;entryDx=0;entryDy=0;" edge="1" parent="1" source="CJXIp_XP7tB50_NmrIow-45" target="CJXIp_XP7tB50_NmrIow-79">
          <mxGeometry relative="1" as="geometry" />
        </mxCell>
        <mxCell id="CJXIp_XP7tB50_NmrIow-45" value="WSHookDuetPrepareView&lt;br&gt;_Products" style="rounded=0;whiteSpace=wrap;html=1;" vertex="1" parent="1">
          <mxGeometry x="448" y="25" width="140" height="53" as="geometry" />
        </mxCell>
        <mxCell id="CJXIp_XP7tB50_NmrIow-46" value="" style="edgeStyle=orthogonalEdgeStyle;rounded=0;orthogonalLoop=1;jettySize=auto;html=1;" edge="1" parent="1" source="CJXIp_XP7tB50_NmrIow-47" target="CJXIp_XP7tB50_NmrIow-81">
          <mxGeometry relative="1" as="geometry" />
        </mxCell>
        <mxCell id="CJXIp_XP7tB50_NmrIow-47" value="WSHookDuetPrepareView&lt;br&gt;_Produce" style="rounded=0;whiteSpace=wrap;html=1;" vertex="1" parent="1">
          <mxGeometry x="448" y="148" width="140" height="46" as="geometry" />
        </mxCell>
        <mxCell id="CJXIp_XP7tB50_NmrIow-48" style="edgeStyle=orthogonalEdgeStyle;rounded=0;orthogonalLoop=1;jettySize=auto;html=1;exitX=0.5;exitY=1;exitDx=0;exitDy=0;" edge="1" parent="1" source="CJXIp_XP7tB50_NmrIow-45" target="CJXIp_XP7tB50_NmrIow-45">
          <mxGeometry relative="1" as="geometry" />
        </mxCell>
        <mxCell id="CJXIp_XP7tB50_NmrIow-49" value="" style="edgeStyle=orthogonalEdgeStyle;rounded=0;orthogonalLoop=1;jettySize=auto;html=1;strokeWidth=1;" edge="1" parent="1" source="CJXIp_XP7tB50_NmrIow-53" target="CJXIp_XP7tB50_NmrIow-86">
          <mxGeometry relative="1" as="geometry" />
        </mxCell>
        <mxCell id="CJXIp_XP7tB50_NmrIow-50" style="edgeStyle=orthogonalEdgeStyle;rounded=0;orthogonalLoop=1;jettySize=auto;html=1;exitX=1;exitY=0.5;exitDx=0;exitDy=0;entryX=0;entryY=0.5;entryDx=0;entryDy=0;strokeWidth=1;" edge="1" parent="1" source="CJXIp_XP7tB50_NmrIow-53" target="CJXIp_XP7tB50_NmrIow-89">
          <mxGeometry relative="1" as="geometry" />
        </mxCell>
        <mxCell id="CJXIp_XP7tB50_NmrIow-51" style="edgeStyle=orthogonalEdgeStyle;rounded=0;orthogonalLoop=1;jettySize=auto;html=1;exitX=1;exitY=0.5;exitDx=0;exitDy=0;entryX=0;entryY=0.5;entryDx=0;entryDy=0;strokeWidth=1;" edge="1" parent="1" source="CJXIp_XP7tB50_NmrIow-53" target="CJXIp_XP7tB50_NmrIow-105">
          <mxGeometry relative="1" as="geometry" />
        </mxCell>
        <mxCell id="CJXIp_XP7tB50_NmrIow-52" style="edgeStyle=orthogonalEdgeStyle;rounded=0;orthogonalLoop=1;jettySize=auto;html=1;exitX=1;exitY=0.5;exitDx=0;exitDy=0;entryX=0;entryY=0.5;entryDx=0;entryDy=0;strokeWidth=1;" edge="1" parent="1" source="CJXIp_XP7tB50_NmrIow-53" target="CJXIp_XP7tB50_NmrIow-106">
          <mxGeometry relative="1" as="geometry" />
        </mxCell>
        <mxCell id="CJXIp_XP7tB50_NmrIow-53" value="1:检测版权,前置工作" style="whiteSpace=wrap;html=1;" vertex="1" parent="1">
          <mxGeometry x="314" y="265" width="96" height="61" as="geometry" />
        </mxCell>
        <mxCell id="CJXIp_XP7tB50_NmrIow-54" style="edgeStyle=orthogonalEdgeStyle;rounded=0;orthogonalLoop=1;jettySize=auto;html=1;entryX=0;entryY=0.5;entryDx=0;entryDy=0;" edge="1" parent="1" source="CJXIp_XP7tB50_NmrIow-65" target="CJXIp_XP7tB50_NmrIow-5">
          <mxGeometry relative="1" as="geometry" />
        </mxCell>
        <mxCell id="CJXIp_XP7tB50_NmrIow-55" style="edgeStyle=orthogonalEdgeStyle;rounded=0;orthogonalLoop=1;jettySize=auto;html=1;exitX=1;exitY=0.5;exitDx=0;exitDy=0;entryX=0;entryY=0.5;entryDx=0;entryDy=0;" edge="1" parent="1" source="CJXIp_XP7tB50_NmrIow-66" target="CJXIp_XP7tB50_NmrIow-5">
          <mxGeometry relative="1" as="geometry" />
        </mxCell>
        <mxCell id="CJXIp_XP7tB50_NmrIow-56" style="edgeStyle=orthogonalEdgeStyle;rounded=0;orthogonalLoop=1;jettySize=auto;html=1;exitX=1;exitY=0.5;exitDx=0;exitDy=0;entryX=0;entryY=0.5;entryDx=0;entryDy=0;" edge="1" parent="1" source="CJXIp_XP7tB50_NmrIow-67" target="CJXIp_XP7tB50_NmrIow-5">
          <mxGeometry relative="1" as="geometry" />
        </mxCell>
        <mxCell id="CJXIp_XP7tB50_NmrIow-57" style="edgeStyle=orthogonalEdgeStyle;rounded=0;orthogonalLoop=1;jettySize=auto;html=1;exitX=1;exitY=0.5;exitDx=0;exitDy=0;entryX=0;entryY=0.5;entryDx=0;entryDy=0;" edge="1" parent="1" source="CJXIp_XP7tB50_NmrIow-68" target="CJXIp_XP7tB50_NmrIow-5">
          <mxGeometry relative="1" as="geometry" />
        </mxCell>
        <mxCell id="CJXIp_XP7tB50_NmrIow-58" style="edgeStyle=orthogonalEdgeStyle;rounded=0;orthogonalLoop=1;jettySize=auto;html=1;entryX=0;entryY=0.5;entryDx=0;entryDy=0;" edge="1" parent="1" source="CJXIp_XP7tB50_NmrIow-69" target="CJXIp_XP7tB50_NmrIow-5">
          <mxGeometry relative="1" as="geometry">
            <mxPoint x="291" y="250" as="targetPoint" />
          </mxGeometry>
        </mxCell>
        <mxCell id="CJXIp_XP7tB50_NmrIow-59" style="edgeStyle=orthogonalEdgeStyle;rounded=0;orthogonalLoop=1;jettySize=auto;html=1;exitX=1;exitY=0.5;exitDx=0;exitDy=0;entryX=0;entryY=0.5;entryDx=0;entryDy=0;" edge="1" parent="1" source="CJXIp_XP7tB50_NmrIow-70" target="CJXIp_XP7tB50_NmrIow-5">
          <mxGeometry relative="1" as="geometry" />
        </mxCell>
        <mxCell id="CJXIp_XP7tB50_NmrIow-60" style="edgeStyle=orthogonalEdgeStyle;rounded=0;orthogonalLoop=1;jettySize=auto;html=1;exitX=1;exitY=0.5;exitDx=0;exitDy=0;entryX=0;entryY=0.5;entryDx=0;entryDy=0;" edge="1" parent="1" source="CJXIp_XP7tB50_NmrIow-71" target="CJXIp_XP7tB50_NmrIow-5">
          <mxGeometry relative="1" as="geometry" />
        </mxCell>
        <mxCell id="CJXIp_XP7tB50_NmrIow-61" style="edgeStyle=orthogonalEdgeStyle;rounded=0;orthogonalLoop=1;jettySize=auto;html=1;exitX=1;exitY=0.5;exitDx=0;exitDy=0;entryX=0;entryY=0.5;entryDx=0;entryDy=0;" edge="1" parent="1" source="CJXIp_XP7tB50_NmrIow-72" target="CJXIp_XP7tB50_NmrIow-5">
          <mxGeometry relative="1" as="geometry" />
        </mxCell>
        <mxCell id="CJXIp_XP7tB50_NmrIow-62" value="" style="group" vertex="1" connectable="0" parent="1">
          <mxGeometry x="-486" y="79" width="230" height="584" as="geometry" />
        </mxCell>
        <mxCell id="CJXIp_XP7tB50_NmrIow-63" value="" style="group" vertex="1" connectable="0" parent="CJXIp_XP7tB50_NmrIow-62">
          <mxGeometry y="56" width="230" height="528" as="geometry" />
        </mxCell>
        <mxCell id="CJXIp_XP7tB50_NmrIow-64" value="" style="group" vertex="1" connectable="0" parent="CJXIp_XP7tB50_NmrIow-63">
          <mxGeometry width="230" height="528" as="geometry" />
        </mxCell>
        <mxCell id="CJXIp_XP7tB50_NmrIow-65" value="1：独唱（音频/视频）&#xa;Normal_Recording/Filter_Recording" style="rounded=0;whiteSpace=wrap;html=1;" vertex="1" parent="CJXIp_XP7tB50_NmrIow-64">
          <mxGeometry width="230" height="53" as="geometry" />
        </mxCell>
        <mxCell id="CJXIp_XP7tB50_NmrIow-66" value="&lt;div&gt;2：发起合唱（音频/视频）&lt;/div&gt;&lt;div&gt;SponsorChorus_Recording&lt;/div&gt;" style="rounded=0;whiteSpace=wrap;html=1;" vertex="1" parent="CJXIp_XP7tB50_NmrIow-64">
          <mxGeometry y="67" width="230" height="53" as="geometry" />
        </mxCell>
        <mxCell id="CJXIp_XP7tB50_NmrIow-67" value="&lt;div&gt;3：加入合唱（音频/视频）&lt;/div&gt;&lt;div&gt;JoinChorus_Recording&lt;/div&gt;" style="rounded=0;whiteSpace=wrap;html=1;" vertex="1" parent="CJXIp_XP7tB50_NmrIow-64">
          <mxGeometry y="134" width="230" height="53" as="geometry" />
        </mxCell>
        <mxCell id="CJXIp_XP7tB50_NmrIow-68" value="&lt;div&gt;4：加入支持和唱的独唱（音频）&lt;/div&gt;&lt;div&gt;JoinNormalUgcChorus_Recording&lt;/div&gt;" style="rounded=0;whiteSpace=wrap;html=1;" vertex="1" parent="CJXIp_XP7tB50_NmrIow-64">
          <mxGeometry y="201" width="230" height="53" as="geometry" />
        </mxCell>
        <mxCell id="CJXIp_XP7tB50_NmrIow-69" value="&lt;div&gt;5：截取片段唱（音频）&lt;/div&gt;&lt;div&gt;Capture_Recording&lt;/div&gt;" style="rounded=0;whiteSpace=wrap;html=1;" vertex="1" parent="CJXIp_XP7tB50_NmrIow-64">
          <mxGeometry y="271" width="230" height="53" as="geometry" />
        </mxCell>
        <mxCell id="CJXIp_XP7tB50_NmrIow-70" value="&lt;div&gt;6：添加视频&lt;/div&gt;&lt;div&gt;addVideoScenario&lt;/div&gt;" style="rounded=0;whiteSpace=wrap;html=1;" vertex="1" parent="CJXIp_XP7tB50_NmrIow-64">
          <mxGeometry y="341" width="230" height="53" as="geometry" />
        </mxCell>
        <mxCell id="CJXIp_XP7tB50_NmrIow-71" value="&lt;div&gt;7：短MV加入&lt;/div&gt;&lt;div&gt;JoinChorus_HookMV&lt;/div&gt;" style="rounded=0;whiteSpace=wrap;html=1;" vertex="1" parent="CJXIp_XP7tB50_NmrIow-64">
          <mxGeometry y="408" width="230" height="53" as="geometry" />
        </mxCell>
        <mxCell id="CJXIp_XP7tB50_NmrIow-72" value="&lt;div&gt;8：短MV发起&lt;/div&gt;&lt;div&gt;SponsorChorus_HookMV&lt;/div&gt;" style="rounded=0;whiteSpace=wrap;html=1;" vertex="1" parent="CJXIp_XP7tB50_NmrIow-64">
          <mxGeometry y="475" width="230" height="53" as="geometry" />
        </mxCell>
        <mxCell id="CJXIp_XP7tB50_NmrIow-73" style="edgeStyle=orthogonalEdgeStyle;rounded=0;orthogonalLoop=1;jettySize=auto;html=1;exitX=1;exitY=0.5;exitDx=0;exitDy=0;entryX=0;entryY=0.5;entryDx=0;entryDy=0;strokeWidth=1;" edge="1" parent="1" source="CJXIp_XP7tB50_NmrIow-74" target="CJXIp_XP7tB50_NmrIow-82">
          <mxGeometry relative="1" as="geometry">
            <Array as="points">
              <mxPoint x="767" y="-87" />
              <mxPoint x="767" y="51" />
            </Array>
          </mxGeometry>
        </mxCell>
        <mxCell id="CJXIp_XP7tB50_NmrIow-74" value="歌词View，下载进度条，等Subview" style="whiteSpace=wrap;html=1;" vertex="1" parent="1">
          <mxGeometry x="607" y="-109.5" width="96.5" height="45" as="geometry" />
        </mxCell>
        <mxCell id="CJXIp_XP7tB50_NmrIow-75" value="歌词View，合唱邀请View" style="whiteSpace=wrap;html=1;" vertex="1" parent="1">
          <mxGeometry x="607" y="-44" width="96.5" height="45" as="geometry" />
        </mxCell>
        <mxCell id="CJXIp_XP7tB50_NmrIow-76" style="edgeStyle=orthogonalEdgeStyle;rounded=0;orthogonalLoop=1;jettySize=auto;html=1;exitX=1;exitY=0.5;exitDx=0;exitDy=0;entryX=0.5;entryY=0;entryDx=0;entryDy=0;dashed=1;strokeWidth=2;" edge="1" parent="1" source="CJXIp_XP7tB50_NmrIow-79" target="CJXIp_XP7tB50_NmrIow-47">
          <mxGeometry relative="1" as="geometry" />
        </mxCell>
        <mxCell id="CJXIp_XP7tB50_NmrIow-77" value="发起新的录唱跳转" style="edgeLabel;html=1;align=center;verticalAlign=middle;resizable=0;points=[];" vertex="1" connectable="0" parent="CJXIp_XP7tB50_NmrIow-76">
          <mxGeometry x="-0.1366" y="1" relative="1" as="geometry">
            <mxPoint x="-57" y="-4" as="offset" />
          </mxGeometry>
        </mxCell>
        <mxCell id="CJXIp_XP7tB50_NmrIow-78" style="edgeStyle=orthogonalEdgeStyle;rounded=0;orthogonalLoop=1;jettySize=auto;html=1;exitX=1;exitY=0.5;exitDx=0;exitDy=0;entryX=0;entryY=0.5;entryDx=0;entryDy=0;strokeWidth=1;" edge="1" parent="1" source="CJXIp_XP7tB50_NmrIow-79" target="CJXIp_XP7tB50_NmrIow-82">
          <mxGeometry relative="1" as="geometry" />
        </mxCell>
        <mxCell id="CJXIp_XP7tB50_NmrIow-79" value="视频播放View，发起新的合唱View，加入按钮" style="whiteSpace=wrap;html=1;" vertex="1" parent="1">
          <mxGeometry x="607" y="29" width="96.5" height="45" as="geometry" />
        </mxCell>
        <mxCell id="CJXIp_XP7tB50_NmrIow-80" style="edgeStyle=orthogonalEdgeStyle;rounded=0;orthogonalLoop=1;jettySize=auto;html=1;exitX=1;exitY=0.5;exitDx=0;exitDy=0;entryX=0;entryY=0.5;entryDx=0;entryDy=0;strokeWidth=1;" edge="1" parent="1" source="CJXIp_XP7tB50_NmrIow-81" target="CJXIp_XP7tB50_NmrIow-82">
          <mxGeometry relative="1" as="geometry" />
        </mxCell>
        <mxCell id="CJXIp_XP7tB50_NmrIow-81" value="GPUImageView。下载进度条，特效选择View" style="whiteSpace=wrap;html=1;rounded=0;" vertex="1" parent="1">
          <mxGeometry x="607" y="145.75" width="110" height="50.5" as="geometry" />
        </mxCell>
        <mxCell id="CJXIp_XP7tB50_NmrIow-82" value="WSplayer&lt;br&gt;摄像头，美颜，滤镜&lt;br&gt;Aekit" style="whiteSpace=wrap;html=1;" vertex="1" parent="1">
          <mxGeometry x="818" y="19" width="110" height="65" as="geometry" />
        </mxCell>
        <mxCell id="CJXIp_XP7tB50_NmrIow-83" value="" style="edgeStyle=orthogonalEdgeStyle;rounded=0;orthogonalLoop=1;jettySize=auto;html=1;strokeWidth=1;" edge="1" parent="1" source="CJXIp_XP7tB50_NmrIow-86" target="CJXIp_XP7tB50_NmrIow-90">
          <mxGeometry relative="1" as="geometry" />
        </mxCell>
        <mxCell id="CJXIp_XP7tB50_NmrIow-84" style="edgeStyle=orthogonalEdgeStyle;rounded=0;orthogonalLoop=1;jettySize=auto;html=1;exitX=1;exitY=0.5;exitDx=0;exitDy=0;entryX=0;entryY=0.5;entryDx=0;entryDy=0;strokeWidth=1;" edge="1" parent="1" source="CJXIp_XP7tB50_NmrIow-86" target="CJXIp_XP7tB50_NmrIow-92">
          <mxGeometry relative="1" as="geometry" />
        </mxCell>
        <mxCell id="CJXIp_XP7tB50_NmrIow-85" style="edgeStyle=orthogonalEdgeStyle;rounded=0;orthogonalLoop=1;jettySize=auto;html=1;exitX=1;exitY=0.5;exitDx=0;exitDy=0;entryX=0;entryY=0.5;entryDx=0;entryDy=0;strokeWidth=1;" edge="1" parent="1" source="CJXIp_XP7tB50_NmrIow-86" target="CJXIp_XP7tB50_NmrIow-94">
          <mxGeometry relative="1" as="geometry" />
        </mxCell>
        <mxCell id="CJXIp_XP7tB50_NmrIow-86" value="Ksongkit" style="whiteSpace=wrap;html=1;" vertex="1" parent="1">
          <mxGeometry x="450.75" y="230" width="111.5" height="52" as="geometry" />
        </mxCell>
        <mxCell id="CJXIp_XP7tB50_NmrIow-87" value="" style="edgeStyle=orthogonalEdgeStyle;rounded=0;orthogonalLoop=1;jettySize=auto;html=1;strokeWidth=1;" edge="1" parent="1" source="CJXIp_XP7tB50_NmrIow-89" target="CJXIp_XP7tB50_NmrIow-91">
          <mxGeometry relative="1" as="geometry" />
        </mxCell>
        <mxCell id="CJXIp_XP7tB50_NmrIow-88" style="edgeStyle=orthogonalEdgeStyle;rounded=0;orthogonalLoop=1;jettySize=auto;html=1;exitX=1;exitY=0.5;exitDx=0;exitDy=0;entryX=0;entryY=0.5;entryDx=0;entryDy=0;strokeWidth=1;" edge="1" parent="1" source="CJXIp_XP7tB50_NmrIow-89" target="CJXIp_XP7tB50_NmrIow-93">
          <mxGeometry relative="1" as="geometry" />
        </mxCell>
        <mxCell id="CJXIp_XP7tB50_NmrIow-89" value="Aekit" style="whiteSpace=wrap;html=1;" vertex="1" parent="1">
          <mxGeometry x="450.5" y="388" width="120" height="35" as="geometry" />
        </mxCell>
        <mxCell id="CJXIp_XP7tB50_NmrIow-90" value="KsongkitDelegate" style="whiteSpace=wrap;html=1;" vertex="1" parent="1">
          <mxGeometry x="604.25" y="211" width="111" height="37" as="geometry" />
        </mxCell>
        <mxCell id="CJXIp_XP7tB50_NmrIow-91" value="AekitDelegate" style="whiteSpace=wrap;html=1;" vertex="1" parent="1">
          <mxGeometry x="612.13" y="413" width="111.75" height="33" as="geometry" />
        </mxCell>
        <mxCell id="CJXIp_XP7tB50_NmrIow-92" value="设置音效，音量，混响等操作入口" style="whiteSpace=wrap;html=1;" vertex="1" parent="1">
          <mxGeometry x="604.25" y="264" width="111" height="37" as="geometry" />
        </mxCell>
        <mxCell id="CJXIp_XP7tB50_NmrIow-93" value="设置手势" style="whiteSpace=wrap;html=1;" vertex="1" parent="1">
          <mxGeometry x="612.13" y="374" width="111.75" height="28" as="geometry" />
        </mxCell>
        <mxCell id="CJXIp_XP7tB50_NmrIow-94" value="打分逻辑，分数计算逻辑" style="whiteSpace=wrap;html=1;" vertex="1" parent="1">
          <mxGeometry x="604.25" y="316" width="111" height="37" as="geometry" />
        </mxCell>
        <mxCell id="CJXIp_XP7tB50_NmrIow-95" value="Aekit" style="whiteSpace=wrap;html=1;" vertex="1" parent="1">
          <mxGeometry x="449" y="663.5" width="119.5" height="36" as="geometry" />
        </mxCell>
        <mxCell id="CJXIp_XP7tB50_NmrIow-96" value="Anunnaki" style="whiteSpace=wrap;html=1;" vertex="1" parent="1">
          <mxGeometry x="449" y="712.5" width="119.5" height="36" as="geometry" />
        </mxCell>
        <mxCell id="CJXIp_XP7tB50_NmrIow-97" value="publishContent&lt;br&gt;" style="text;html=1;align=center;verticalAlign=middle;resizable=0;points=[];autosize=1;strokeColor=none;rotation=90;" vertex="1" parent="1">
          <mxGeometry x="116" y="772" width="90" height="18" as="geometry" />
        </mxCell>
        <mxCell id="CJXIp_XP7tB50_NmrIow-98" value="" style="edgeStyle=orthogonalEdgeStyle;rounded=0;orthogonalLoop=1;jettySize=auto;html=1;strokeWidth=1;" edge="1" parent="1" source="CJXIp_XP7tB50_NmrIow-101" target="CJXIp_XP7tB50_NmrIow-102">
          <mxGeometry relative="1" as="geometry" />
        </mxCell>
        <mxCell id="CJXIp_XP7tB50_NmrIow-99" style="edgeStyle=orthogonalEdgeStyle;rounded=0;orthogonalLoop=1;jettySize=auto;html=1;exitX=1;exitY=0.5;exitDx=0;exitDy=0;entryX=0;entryY=0.5;entryDx=0;entryDy=0;strokeWidth=1;" edge="1" parent="1" source="CJXIp_XP7tB50_NmrIow-101" target="CJXIp_XP7tB50_NmrIow-103">
          <mxGeometry relative="1" as="geometry" />
        </mxCell>
        <mxCell id="CJXIp_XP7tB50_NmrIow-100" style="edgeStyle=orthogonalEdgeStyle;rounded=0;orthogonalLoop=1;jettySize=auto;html=1;exitX=1;exitY=0.5;exitDx=0;exitDy=0;entryX=0;entryY=0.5;entryDx=0;entryDy=0;strokeWidth=1;" edge="1" parent="1" source="CJXIp_XP7tB50_NmrIow-101" target="CJXIp_XP7tB50_NmrIow-104">
          <mxGeometry relative="1" as="geometry" />
        </mxCell>
        <mxCell id="CJXIp_XP7tB50_NmrIow-101" value="Ksongkit" style="whiteSpace=wrap;html=1;" vertex="1" parent="1">
          <mxGeometry x="449" y="607.5" width="109.5" height="35" as="geometry" />
        </mxCell>
        <mxCell id="CJXIp_XP7tB50_NmrIow-102" value="KsongkitDelegate" style="whiteSpace=wrap;html=1;" vertex="1" parent="1">
          <mxGeometry x="612.88" y="586" width="111" height="37" as="geometry" />
        </mxCell>
        <mxCell id="CJXIp_XP7tB50_NmrIow-103" value="设置音效，音量，混响等操作入口" style="whiteSpace=wrap;html=1;" vertex="1" parent="1">
          <mxGeometry x="612.88" y="639" width="111" height="37" as="geometry" />
        </mxCell>
        <mxCell id="CJXIp_XP7tB50_NmrIow-104" value="打分逻辑，分数计算逻辑" style="whiteSpace=wrap;html=1;" vertex="1" parent="1">
          <mxGeometry x="612.88" y="691" width="111" height="37" as="geometry" />
        </mxCell>
        <mxCell id="CJXIp_XP7tB50_NmrIow-105" value="WSplayer&lt;br&gt;摄像头，美颜，滤镜&lt;br&gt;Aekit" style="whiteSpace=wrap;html=1;" vertex="1" parent="1">
          <mxGeometry x="450.75" y="446" width="115.25" height="40" as="geometry" />
        </mxCell>
        <mxCell id="CJXIp_XP7tB50_NmrIow-106" value="保存草稿" style="whiteSpace=wrap;html=1;" vertex="1" parent="1">
          <mxGeometry x="450.5" y="497" width="112.5" height="29" as="geometry" />
        </mxCell>
        <mxCell id="CJXIp_XP7tB50_NmrIow-107" value="保存草稿" style="whiteSpace=wrap;html=1;" vertex="1" parent="1">
          <mxGeometry x="449" y="764.5" width="112.5" height="29" as="geometry" />
        </mxCell>
        <mxCell id="CJXIp_XP7tB50_NmrIow-108" value="uploadSDK" style="rounded=0;whiteSpace=wrap;html=1;" vertex="1" parent="1">
          <mxGeometry x="449" y="894" width="101" height="36" as="geometry" />
        </mxCell>
        <mxCell id="CJXIp_XP7tB50_NmrIow-109" value="Wsplayer" style="whiteSpace=wrap;html=1;" vertex="1" parent="1">
          <mxGeometry x="448" y="554" width="108" height="35" as="geometry" />
        </mxCell>
        <mxCell id="CJXIp_XP7tB50_NmrIow-110" value="&amp;nbsp;&amp;nbsp;" style="text;html=1;align=center;verticalAlign=middle;resizable=0;points=[];autosize=1;strokeColor=none;" vertex="1" parent="1">
          <mxGeometry x="972" y="988" width="17" height="18" as="geometry" />
        </mxCell>
        <mxCell id="CJXIp_XP7tB50_NmrIow-111" value="&amp;nbsp;&amp;nbsp;" style="text;html=1;align=center;verticalAlign=middle;resizable=0;points=[];autosize=1;strokeColor=none;" vertex="1" parent="1">
          <mxGeometry x="-572" y="1044" width="17" height="18" as="geometry" />
        </mxCell>
        <mxCell id="CJXIp_XP7tB50_NmrIow-112" value="&amp;nbsp;&amp;nbsp;" style="text;html=1;align=center;verticalAlign=middle;resizable=0;points=[];autosize=1;strokeColor=none;" vertex="1" parent="1">
          <mxGeometry x="972" y="-211" width="17" height="18" as="geometry" />
        </mxCell>
        <mxCell id="CJXIp_XP7tB50_NmrIow-113" value="&amp;nbsp;&amp;nbsp;" style="text;html=1;align=center;verticalAlign=middle;resizable=0;points=[];autosize=1;strokeColor=none;" vertex="1" parent="1">
          <mxGeometry x="-572" y="-211" width="17" height="18" as="geometry" />
        </mxCell>
      </root>
    </mxGraphModel>
  </diagram>
</mxfile>
